<?xml version="1.0" standalone="no"?>
<!DOCTYPE svg PUBLIC "-//W3C//DTD SVG 20010904//EN"
 "http://www.w3.org/TR/2001/REC-SVG-20010904/DTD/svg10.dtd">
<svg version="1.0" xmlns="http://www.w3.org/2000/svg"
 width="1104.000000pt" height="1104.000000pt" viewBox="0 0 1104.000000 1104.000000"
 preserveAspectRatio="xMidYMid meet">
<metadata>
Created by potrace 1.14, written by Peter Selinger 2001-2017
</metadata>
<g transform="translate(0.000000,1104.000000) scale(0.100000,-0.100000)"
fill="#000000" stroke="none">
<path d="M7180 10753 c-82 -14 -120 -29 -120 -49 0 -7 -40 -96 -90 -197 -49
-101 -90 -190 -90 -197 0 -7 14 -37 30 -67 17 -29 27 -53 23 -53 -5 0 -3 -4 2
-8 6 -4 16 -17 23 -29 31 -57 38 -68 50 -81 6 -7 12 -18 12 -24 0 -5 11 -19
25 -30 16 -13 23 -26 21 -41 -3 -12 -5 -23 -7 -24 -2 -4 -3 -7 -13 -58 -10
-52 -36 -106 -59 -125 -10 -8 -19 -28 -21 -44 -2 -19 -11 -32 -25 -37 -24 -10
-42 -48 -35 -75 3 -13 -2 -22 -17 -29 -34 -15 -46 -41 -31 -65 16 -26 15 -30
-7 -30 -34 0 -59 -51 -38 -78 5 -7 7 -16 3 -20 -12 -11 -2518 -14 -2511 -3 5
10 -27 33 -42 30 -4 -1 -16 -1 -25 0 -15 1 -15 4 -2 29 7 15 14 33 14 40 0 15
-38 31 -62 26 -21 -3 -23 9 -7 35 7 10 9 30 5 44 -5 22 -10 25 -37 20 -28 -4
-31 -2 -25 14 23 56 11 83 -35 83 -26 0 -28 3 -23 28 4 20 0 34 -12 46 -15 16
-74 171 -74 197 0 5 43 54 96 107 86 88 94 100 89 126 -3 16 -12 37 -20 46 -8
9 -13 19 -10 22 3 3 -1 11 -10 18 -8 7 -15 17 -15 22 0 5 -13 28 -29 51 -16
23 -28 44 -27 47 2 10 -93 146 -121 171 -40 38 -131 100 -156 106 -57 16 -150
8 -277 -22 -14 -3 -29 -7 -35 -8 -5 -2 -14 -5 -20 -8 -5 -4 -23 -9 -40 -13
-72 -18 -411 -198 -465 -248 -11 -10 -22 -18 -24 -18 -14 0 -162 -141 -196
-187 -43 -57 -110 -190 -114 -227 -3 -29 8 -64 24 -76 10 -8 110 -181 110
-191 0 -5 3 -9 8 -9 4 0 16 -20 27 -45 11 -25 22 -45 26 -45 4 0 10 -11 13
-24 8 -32 48 -41 226 -52 41 -2 80 -5 85 -5 6 -1 29 2 53 6 27 5 42 4 42 -3 0
-5 12 -23 28 -40 57 -62 84 -94 80 -97 -2 -1 -77 -5 -168 -8 -91 -3 -176 -8
-190 -11 -13 -3 -42 -8 -65 -12 -59 -8 -232 -67 -306 -104 -116 -58 -230 -141
-328 -240 -53 -53 -107 -113 -121 -134 -14 -20 -33 -46 -42 -58 -23 -27 -127
-236 -132 -265 -3 -12 -9 -30 -14 -40 -6 -10 -12 -32 -15 -50 -3 -17 -7 -36
-10 -40 -3 -5 -8 -27 -11 -49 -4 -22 -9 -51 -13 -64 -4 -14 -9 -423 -10 -909
l-4 -885 -48 -65 c-47 -64 -161 -247 -161 -258 0 -3 -16 -37 -35 -77 -30 -62
-90 -222 -100 -266 -2 -8 -13 -53 -24 -100 -11 -47 -26 -123 -32 -170 -20
-136 -17 -469 6 -574 2 -12 7 -34 9 -51 24 -142 90 -342 153 -469 43 -86 142
-257 157 -271 6 -5 25 -31 43 -56 l32 -46 4 -1499 c2 -825 7 -1515 11 -1534
29 -133 39 -173 63 -235 112 -299 326 -541 605 -684 109 -57 256 -105 379
-126 71 -12 475 -13 2584 -12 1375 2 2514 6 2530 10 17 4 41 10 55 12 52 11
67 14 130 34 74 22 133 44 140 51 3 3 27 15 54 28 212 100 442 332 553 557 36
71 80 189 87 227 3 15 7 31 9 36 3 4 8 25 11 47 4 22 10 65 16 95 5 32 9 743
9 1680 l1 1625 49 80 c90 149 183 360 207 470 1 6 7 30 14 55 16 60 20 79 27
120 3 19 11 71 18 115 12 76 13 409 1 480 -2 17 -8 50 -12 75 -5 25 -9 50 -9
55 -2 23 -29 125 -50 195 -48 157 -110 294 -196 435 l-49 80 0 830 c-1 852 -2
873 -41 1025 -35 138 -116 310 -201 425 -181 247 -489 443 -770 490 -18 3 -49
8 -68 12 -50 9 -87 11 -235 13 -98 1 -123 4 -103 11 18 7 29 20 33 41 4 16 13
38 20 47 8 9 34 42 59 73 37 45 51 56 69 52 12 -2 38 -7 57 -10 19 -3 51 -9
70 -14 19 -5 56 -11 81 -14 40 -5 49 -2 69 19 13 14 20 25 16 25 -4 0 2 14 14
30 12 17 18 30 13 30 -4 0 -3 4 2 8 8 6 64 112 70 132 2 5 11 28 40 95 18 45
28 107 27 175 -2 113 -13 139 -102 233 -25 27 -46 53 -48 58 -2 5 -8 9 -13 9
-5 0 -17 8 -27 18 -39 36 -73 62 -82 62 -6 0 -13 7 -16 15 -4 8 -10 12 -15 9
-5 -3 -9 -1 -9 4 0 5 -13 15 -30 22 -16 7 -30 17 -30 22 0 5 -4 7 -9 4 -5 -4
-11 -2 -13 2 -7 18 -317 165 -371 176 -7 2 -19 6 -27 9 -96 38 -265 52 -390
30z m409 -153 c-19 -38 -37 -70 -42 -70 -4 0 4 21 18 47 14 27 25 55 25 63 0
17 21 43 28 35 3 -2 -11 -36 -29 -75z m-74 -149 c-19 -38 -39 -73 -45 -76 -6
-4 3 20 20 54 16 34 27 61 23 61 -6 0 28 29 35 30 1 0 -13 -31 -33 -69z
m-4494 -203 c35 -62 66 -115 70 -118 4 -3 10 -19 14 -35 5 -23 -1 -17 -26 25
-17 30 -36 57 -41 58 -4 2 -5 8 -2 14 4 6 3 13 -2 17 -5 3 -18 23 -28 44 -11
21 -30 49 -44 62 -19 20 -24 45 -7 45 2 0 31 -51 66 -112z m4443 88 c-8 -20
-34 -29 -34 -12 0 13 13 23 32 25 4 1 5 -5 2 -13z m-34 -51 c0 -8 -4 -15 -10
-15 -5 0 -10 7 -10 15 0 8 5 15 10 15 6 0 10 -7 10 -15z m-4286 -266 c-11 -18
-21 -8 -21 18 0 25 0 25 13 8 7 -10 11 -22 8 -26z m31 -40 c-7 -10 -35 -1 -35
11 0 5 9 6 20 3 11 -3 17 -9 15 -14z m4061 -224 c-1 -26 -10 -32 -21 -16 -3 5
-1 12 5 16 6 4 8 11 5 16 -4 5 -2 9 3 9 6 0 9 -11 8 -25z m44 -29 c0 -3 -4 -8
-10 -11 -5 -3 -10 -1 -10 4 0 6 5 11 10 11 6 0 10 -2 10 -4z m-196 -55 c4 -5
-3 -7 -14 -4 -23 6 -26 13 -6 13 8 0 17 -4 20 -9z m64 -137 c10 -10 -61 5 -71
15 -6 6 6 6 28 1 20 -4 40 -12 43 -16z m-3642 -4 c9 0 12 -4 9 -10 -3 -5 -13
-10 -21 -10 -8 0 -12 5 -9 10 3 6 1 10 -5 10 -6 0 -8 5 -4 12 6 9 9 9 12 0 2
-7 10 -12 18 -12z m54 16 c0 -2 -7 -7 -16 -10 -8 -3 -12 -2 -9 4 6 10 25 14
25 6z m3544 -121 c26 -19 13 -19 -23 0 -16 8 -31 12 -34 9 -3 -3 -8 -1 -11 5
-9 14 42 3 68 -14z"/>
<path d="M5935 10464 c-46 -24 -90 -77 -192 -231 -51 -78 -98 -145 -103 -148
-16 -10 -35 6 -103 90 -96 119 -144 155 -206 155 -35 0 -58 -18 -152 -117 -41
-42 -103 -106 -138 -141 l-63 -63 -72 73 c-86 89 -128 137 -184 216 -41 56
-72 80 -99 76 -7 -1 -19 -2 -26 -3 -7 0 -29 -15 -48 -32 -19 -17 -60 -54 -91
-82 -32 -27 -58 -53 -58 -57 0 -4 13 -22 29 -41 l29 -33 59 49 c32 27 64 58
71 67 22 30 37 21 93 -54 29 -40 103 -123 163 -184 86 -88 114 -110 130 -106
40 10 102 63 230 197 71 74 133 135 137 135 12 0 81 -69 125 -125 90 -115 129
-144 178 -131 41 10 99 76 188 211 46 72 96 142 110 158 l25 27 40 -52 c21
-29 66 -95 98 -147 74 -115 189 -222 233 -215 6 1 20 2 31 3 31 2 96 71 150
158 28 46 51 86 51 91 0 4 -15 23 -34 41 l-35 34 -28 -48 c-67 -112 -109 -170
-124 -170 -29 0 -104 72 -144 137 -21 35 -73 111 -114 171 -82 116 -94 123
-156 91z"/>
</g>
</svg>
